<svg xmlns="http://www.w3.org/2000/svg" viewBox="0 0 1200 630" width="1200" height="630">
  <!-- OGP 1200x630 / REI ANALYTICS 公式ブランド -->
  <defs>
    <linearGradient id="bg" x1="0" y1="0" x2="1" y2="1">
      <stop offset="0" stop-color="#0f0f1a" />
      <stop offset="1" stop-color="#13131f" />
    </linearGradient>
    <radialGradient id="glow" cx="0.72" cy="0.5" r="0.55">
      <stop offset="0" stop-color="#4ade80" stop-opacity="0.20" />
      <stop offset="1" stop-color="#4ade80" stop-opacity="0" />
    </radialGradient>
    <pattern id="gridOg" x="0" y="0" width="64" height="64" patternUnits="userSpaceOnUse">
      <path d="M 64 0 L 0 0 0 64" stroke="rgba(255,255,255,0.035)" stroke-width="1" fill="none" />
    </pattern>
    <linearGradient id="hairOg" x1="0" y1="0" x2="0" y2="1">
      <stop offset="0" stop-color="#3a3a52" />
      <stop offset="1" stop-color="#1f1f30" />
    </linearGradient>
    <linearGradient id="hoodOg" x1="0" y1="0" x2="0" y2="1">
      <stop offset="0" stop-color="#1c1c2e" />
      <stop offset="1" stop-color="#13131f" />
    </linearGradient>
    <linearGradient id="faceOg" x1="0" y1="0" x2="0" y2="1">
      <stop offset="0" stop-color="#4a4564" />
      <stop offset="1" stop-color="#3d3a52" />
    </linearGradient>
    <radialGradient id="eyeOg" cx="0.5" cy="0.5" r="0.6">
      <stop offset="0" stop-color="#7df0a8" stop-opacity="1" />
      <stop offset="0.7" stop-color="#4ade80" stop-opacity="0.6" />
      <stop offset="1" stop-color="#4ade80" stop-opacity="0" />
    </radialGradient>
  </defs>

  <rect width="1200" height="630" fill="url(#bg)" />
  <rect width="1200" height="630" fill="url(#gridOg)" />
  <rect width="1200" height="630" fill="url(#glow)" />

  <!-- M-logo（左上） -->
  <g transform="translate(80, 70)">
    <circle cx="32" cy="32" r="29" fill="#0f0f1a" stroke="#4ade80" stroke-width="2.4" />
    <path d="M 18 44 L 22 20 L 32 36 L 42 20 L 46 44" stroke="#4ade80" stroke-width="3.6" stroke-linecap="round" stroke-linejoin="round" fill="none" />
    <circle cx="32" cy="36" r="1.5" fill="#4ade80" />
  </g>
  <text x="160" y="100" font-family="'JetBrains Mono', monospace" font-size="22" font-weight="700" fill="#e8e8f0" letter-spacing="6">REI</text>
  <text x="160" y="126" font-family="'JetBrains Mono', monospace" font-size="12" font-weight="500" fill="#4ade80" letter-spacing="6">ANALYTICS</text>

  <!-- メインタイポ -->
  <text x="80" y="280" font-family="'Noto Serif JP', serif" font-size="76" font-weight="700" fill="#e8e8f0">観測する人。</text>
  <text x="80" y="375" font-family="'Noto Sans JP', sans-serif" font-size="64" font-weight="900" fill="#e8e8f0">
    <tspan fill="#4ade80">数字を出す側</tspan>になる。
  </text>
  <text x="80" y="465" font-family="'JetBrains Mono', monospace" font-size="22" fill="#8a8aa0" letter-spacing="3">
    @Rei_value — RECORDING IN PROGRESS
  </text>
  <rect x="80" y="485" width="60" height="3" fill="#4ade80" />

  <!-- Rei v3 シルエット（右側） -->
  <g transform="translate(770, 70) scale(1.0)">
    <path d="M 30 380 Q 60 290 200 285 Q 340 290 370 380 L 388 560 L 12 560 Z" fill="url(#hoodOg)" stroke="#2a2a40" stroke-width="1.5" />
    <path d="M 85 350 Q 130 325 200 325 Q 270 325 315 350 L 320 395 Q 270 365 200 365 Q 130 365 80 395 Z" fill="#16162a" />
    <path d="M 60 420 Q 90 408 165 418 L 175 472 Q 90 482 60 470 Z" fill="url(#hoodOg)" stroke="#2a2a40" stroke-width="1.5" />
    <path d="M 340 420 Q 310 408 235 418 L 225 472 Q 310 482 340 470 Z" fill="url(#hoodOg)" stroke="#2a2a40" stroke-width="1.5" />
    <path d="M 75 380 L 90 410 L 80 470 L 88 540" stroke="#4ade80" stroke-width="2.4" opacity="0.9" fill="none" stroke-linecap="round" />
    <path d="M 325 380 L 310 410 L 320 470 L 312 540" stroke="#4ade80" stroke-width="2.4" opacity="0.9" fill="none" stroke-linecap="round" />
    <circle cx="115" cy="450" r="14" fill="#0f0f1a" stroke="#4ade80" stroke-width="1.4" />
    <path d="M 107 458 L 110 442 L 115 452 L 120 442 L 123 458" stroke="#4ade80" stroke-width="1.4" stroke-linecap="round" stroke-linejoin="round" fill="none" />
    <text x="200" y="455" text-anchor="middle" font-family="'JetBrains Mono', monospace" font-weight="700" font-size="22" letter-spacing="6" fill="#4ade80">REI</text>
    <line x1="180" y1="355" x2="180" y2="440" stroke="#4ade80" stroke-width="2.6" stroke-linecap="round" />
    <line x1="220" y1="355" x2="220" y2="440" stroke="#4ade80" stroke-width="2.6" stroke-linecap="round" />
    <circle cx="180" cy="440" r="3.2" fill="#4ade80" />
    <circle cx="220" cy="440" r="3.2" fill="#4ade80" />
    <path d="M 95 210 Q 70 320 100 480 L 145 480 Q 125 350 125 220 Z" fill="url(#hairOg)" />
    <path d="M 305 210 Q 330 320 300 480 L 255 480 Q 275 350 275 220 Z" fill="url(#hairOg)" />
    <ellipse cx="200" cy="228" rx="72" ry="83" fill="url(#faceOg)" stroke="#564f70" stroke-width="1.2" />
    <path d="M 132 168 Q 200 108 268 168 Q 270 195 240 192 Q 220 175 200 180 Q 180 175 160 192 Q 130 195 132 168 Z" fill="url(#hairOg)" />
    <path d="M 132 168 Q 110 200 105 270 Q 118 230 135 200 Q 140 180 132 168 Z" fill="url(#hairOg)" />
    <path d="M 268 168 Q 290 200 295 270 Q 282 230 265 200 Q 260 180 268 168 Z" fill="url(#hairOg)" />
    <polygon points="120,72 144,150 170,118" fill="#1f1f30" stroke="#564f70" stroke-width="1.5" stroke-linejoin="round" />
    <polygon points="135,98 146,140 160,118" fill="#3a3a52" opacity="0.8" />
    <polygon points="142,116 148,138 154,124" fill="#4ade80" opacity="0.45" />
    <polygon points="280,72 256,150 230,118" fill="#1f1f30" stroke="#564f70" stroke-width="1.5" stroke-linejoin="round" />
    <polygon points="265,98 254,140 240,118" fill="#3a3a52" opacity="0.8" />
    <polygon points="258,116 252,138 246,124" fill="#4ade80" opacity="0.45" />
    <circle cx="167" cy="232" r="29" stroke="#888caf" stroke-width="2.6" fill="rgba(74,222,128,0.04)" />
    <circle cx="233" cy="232" r="29" stroke="#888caf" stroke-width="2.6" fill="rgba(74,222,128,0.04)" />
    <line x1="196" y1="232" x2="204" y2="232" stroke="#888caf" stroke-width="2.6" />
    <line x1="138" y1="232" x2="122" y2="228" stroke="#888caf" stroke-width="2" />
    <line x1="262" y1="232" x2="278" y2="228" stroke="#888caf" stroke-width="2" />
    <ellipse cx="167" cy="234" rx="10" ry="11" fill="url(#eyeOg)" />
    <ellipse cx="233" cy="234" rx="10" ry="11" fill="url(#eyeOg)" />
    <ellipse cx="167" cy="234" rx="7" ry="8" fill="#4ade80" />
    <ellipse cx="233" cy="234" rx="7" ry="8" fill="#4ade80" />
    <ellipse cx="167" cy="234" rx="3" ry="4" fill="#0a2e1a" />
    <ellipse cx="233" cy="234" rx="3" ry="4" fill="#0a2e1a" />
    <ellipse cx="170" cy="230" rx="2" ry="2.4" fill="#ffffff" />
    <ellipse cx="236" cy="230" rx="2" ry="2.4" fill="#ffffff" />
    <path d="M 156 220 Q 167 215 178 220" stroke="#3a3a52" stroke-width="2" fill="none" stroke-linecap="round" />
    <path d="M 222 220 Q 233 215 244 220" stroke="#3a3a52" stroke-width="2" fill="none" stroke-linecap="round" />
    <ellipse cx="148" cy="268" rx="13" ry="6" fill="#4ade80" opacity="0.16" />
    <ellipse cx="252" cy="268" rx="13" ry="6" fill="#4ade80" opacity="0.16" />
    <ellipse cx="200" cy="265" rx="1.2" ry="2" fill="#564f70" opacity="0.7" />
    <path d="M 189 287 Q 200 293 211 287" stroke="#888caf" stroke-width="2" fill="none" stroke-linecap="round" />
  </g>

  <circle cx="1150" cy="585" r="6" fill="#4ade80" />
</svg>
